<svg xmlns="http://www.w3.org/2000/svg" id="Capa_1" width="141.36" height="111.94" viewBox="0 0 141.36 111.94"><defs fill="#000000"><style>.cls-1{fill:#ffffff;}</style></defs><path class="cls-1" d="M109.11,110.4h-31.49c-1.87,0-3.69-.89-4.84-2.38-1.16-1.5-1.56-3.34-1.07-5.06,.35-1.44,1.77-4.67,7.33-4.12h.49c-1.5-1.78-2.99-4.18-3.81-7.22-.5,.15-1.05,.17-1.58,.02l-.07-.02-7.1-2.46c-.71-.25-1.37-.51-1.98-.78l.41,2.88v.73l-2.96,13.5c-.66,2.89-3.15,4.91-6.06,4.91h-4.51c-1.87,0-3.49-1.16-4.12-2.95-.62-1.76-.08-3.72,1.32-4.88,.63-.57,1.43-1.06,2.38-1.46l1.14-10.14-.71-2.97c-.57-2.45-1.65-4.66-3.13-6.4-.49-.55-.93-1-1.37-1.37l-1.75-1.35c-2.75-2.16-4.98-4.71-6.63-7.58l-9.14,4.63c0,.17,0,.34,0,.49,0,3.06-1.38,5.95-3.8,7.91-1.08,.92-2.59,1.46-4.13,1.46-.49,0-.91-.06-1.34-.12l-.28-.05c-2.25-.58-3.97-2.16-4.61-4.23l-.33-.94c-.59-1.75-.41-3.67,.48-5.29l4.32-7.96c.33-.55,.78-.95,1.3-1.17l13.94-6.32c-.2-3.04,.08-6.01,.84-8.85,.14-.52,.29-1.04,.45-1.56,.15-.5,.3-1.01,.44-1.51,1.11-3.65,.12-6.09-.78-7.4-9.01,.87-11.16,.58-12.12,.12-2.03-.97-3.63-3.89-4.13-4.9-.94-.73-1.81-1.87-2.48-2.81l-.08-.14-.25-.5c-.45-1.18-.35-2.48,.28-3.55,1.16-2.06,3.86-2.67,4.61-2.8l9.91-4.73c1.2-3.59,4.37-6.01,6.55-7.32l-1.59-9.27c-.22-1.11,.32-2.29,1.33-2.85,.96-.53,2.15-.45,3.03,.21l.08,.07c1.63,1.35,9.79,8.28,12.86,14.37,2.54,1.51,9.76,6.87,14.14,20.74,7.16,8.86,13.59,16.34,15.34,17.89,10.74,1.3,19.08,5.68,24.78,13,4.09,5.35,6.09,11.39,7.04,16.62,.52-2.67,.84-5.31,.95-7.9,.57-12.19-.6-24.55-1.13-29.29-.02-.14-.02-.24-.03-.3h0c-.11-1.31,.6-2.47,1.77-2.9,1.2-.43,2.5,0,3.25,1.06l.03,.04c9.56,15.1,8.73,37.66,5.12,52.39-1.81,7.38-8.75,12.75-16.51,12.75Zm-31.29-9.56c-2.85,0-3.82,1.38-4.11,2.62v.04c-.33,1.1-.07,2.26,.7,3.25,.77,.99,1.97,1.58,3.22,1.58h31.49c6.82,0,12.92-4.7,14.5-11.17,3.51-14.33,4.35-36.22-4.84-50.78-.21-.29-.53-.4-.84-.29-.35,.13-.44,.49-.42,.79v.02s.01,.11,.03,.23c.53,4.79,1.71,17.28,1.14,29.61-.2,4.51-1,9.17-2.36,13.84l-1.65,5.63-.37-5.85c-.37-5.78-1.94-14.15-7.3-21.17-5.4-6.93-13.37-11.05-23.68-12.24l-.28-.03-.22-.17c-2.11-1.61-11.07-12.42-16.03-18.56l-.12-.15-.06-.19c-4.32-13.84-11.45-18.74-13.52-19.91l-.28-.16-.14-.29c-2.76-5.78-10.86-12.65-12.46-13.97l-.02-.02c-.23-.16-.53-.18-.78-.05-.22,.12-.36,.42-.31,.67l1.84,10.73-.64,.35c-1.95,1.07-5.35,3.39-6.34,6.89l-.13,.45-11.02,5.26-.16,.02c-.85,.12-2.63,.66-3.28,1.81-.32,.54-.37,1.16-.16,1.75l.14,.29c.58,.81,1.41,1.9,2.16,2.42l.23,.16,.12,.25c.77,1.62,2.12,3.61,3.27,4.16,.51,.24,2.7,.51,11.61-.37l.55-.05,.35,.43c.97,1.19,3.06,4.53,1.48,9.7-.13,.49-.29,1.02-.44,1.54-.15,.5-.3,1-.43,1.5-.76,2.83-1,5.82-.72,8.87l.07,.73-15.33,6.95c-.1,.04-.21,.15-.31,.31l-4.29,7.91c-.6,1.1-.73,2.45-.34,3.62l.35,.98c.42,1.37,1.58,2.43,3.11,2.85l.11,.02c.39,.06,.7,.1,1.05,.1,1.04,0,2.09-.37,2.81-.98,1.95-1.59,3.06-3.88,3.06-6.32,0-.29,0-.65-.05-.89l-.15-.77,12.27-6.21,.47,.9c1.55,2.98,3.76,5.6,6.55,7.8l1.81,1.39c.52,.44,1.02,.95,1.6,1.6,1.71,2.01,2.94,4.52,3.58,7.29l.79,3.31-1.32,11.75-.61,.22c-.98,.35-1.76,.79-2.32,1.3l-.04,.04c-.75,.61-1.04,1.66-.7,2.62,.34,.96,1.17,1.56,2.17,1.56h4.51c1.94,0,3.61-1.36,4.05-3.3l2.91-13.28v-.43l-.98-6.79,1.86,1.12c.93,.56,2.09,1.08,3.43,1.55l7.06,2.45c.27,.06,.62,0,.8-.29l1.41-2.36,.48,2.71c.8,4.47,3.28,7.58,5.22,9.41l1.9,1.78h-5.64c-.38-.04-.74-.06-1.06-.06Z" fill="#000000"/></svg>