<svg xmlns="http://www.w3.org/2000/svg" id="Capa_1" width="141.36" height="111.94" viewBox="0 0 141.36 111.94"><defs fill="#000000"><style>.cls-1{fill:#ffffff;}</style></defs><path class="cls-1" d="M78.67,66.99c0-1.73-1.42-3.13-3.17-3.13h-7.7c-1.75,0-3.17,1.41-3.17,3.13v5.01l-5.3,.02c-.83,0-1.61,.32-2.2,.9-.62,.6-.95,1.4-.95,2.25l.03,7.4c.01,1.72,1.43,3.12,3.18,3.12l5.25-.02v4.96c0,1.73,1.42,3.13,3.17,3.13h7.7c1.75,0,3.17-1.41,3.17-3.13v-5.01l5.3-.02c.83,0,1.61-.32,2.21-.89,.62-.6,.96-1.41,.95-2.25l-.03-7.4c-.01-1.72-1.43-3.12-3.17-3.12l-5.26,.02v-4.96Zm5.26,7.94c.09,0,.17,.06,.17,.14v7.49s-.08,.05-.14,.05l-8.29,.03v8c0,.06-.07,.13-.17,.13h-7.7c-.1,0-.17-.07-.17-.13v-7.97l-8.26,.03c-.1,0-.17-.07-.17-.14v-7.49s.08-.05,.13-.05l8.29-.03v-8c0-.06,.07-.13,.17-.13h7.7c.1,0,.17,.07,.17,.13v7.97l8.26-.03" fill="#000000"/><path class="cls-1" d="M133.83,32.88c-.17-1.9-.48-3.77-.9-5.56-.02-.08-.04-.16-.05-.23-1.21-4.99-3.31-9.45-6.26-13.25-3.18-4.1-7.24-7.3-12.09-9.53-1.97-.91-7.23-3.06-13.58-3.44-4.69-.29-9.99,.54-14.55,2.27-7.01,2.66-12.47,8.21-14.82,10.9-2.37-2.68-7.87-8.2-14.89-10.81-4.73-1.76-10.31-2.53-15.31-2.12-5.88,.48-10.91,2.58-12.81,3.46-7.53,3.52-13.19,9.48-16.39,17.23-2.87,6.97-3.63,15.29-2.13,23.41,.46,2.46,1.12,4.9,1.97,7.26l.32,.88,.94-.02c1.83-.04,3.49-.11,5.06-.23,1.36-.1,2.83-.63,4.14-1.5,2.15-1.42,3.14-4.12,4.11-6.77,.42-1.14,.81-2.22,1.27-3.05,2.5-4.56,4.99-7.72,7.9-9.97l.09-.07c.4-.3,.8-.59,1.2-.84l.17-.1c.45-.28,.88-.52,1.35-.75,.28-.14,.58-.27,.9-.39l.67-.27,.13-.71c.19-1.05,2.61-6.48,4.13-7.78,.13,.27,.3,.76,.48,1.65,.26,1.3,.4,2.9,.51,4.15,.06,.67,.11,1.2,.16,1.57,.13,.87,.74,1.08,2.21,1.58,.14,.05,.31,.1,.33,.11,1.65,.74,3.15,1.89,4.33,3.33,.59,.72,1.06,1.48,1.39,2.26,.09,.21,.18,.42,.27,.63l.07,.15c.29,.66,.57,1.28,.72,1.91,.47,1.91,2.47,2.93,3.94,3.69,.12,.06,.24,.12,.36,.18,.34,.18,.65,.32,.95,.47,.72,.34,1.24,.59,1.83,1.09,.26,.23,.39,.49,.37,.8-.01,.31-.19,.63-.43,.81l-.29,.29c-1.16,1.57-2.54,3.05-4.79,3.22-1,.08-1.91,.13-2.71,.16-2.76,.1-3.46,2.64-3.88,4.16-.07,.25-.14,.49-.21,.71-.22,.68-.4,1.36-.33,2.27,.04,.51,.06,1.03,.06,1.59,0,1.06-.06,2.15-.17,3.22-.38,3.68-1.37,7.25-2.94,10.59-1.64,3.49-3.84,6.56-6.54,9.12-.79,.75-1.27,1.53-1.46,2.39-.1,.46-.22,.96-.35,1.54l-.18,.75,.58,.52c2.77,2.48,5.66,4.98,8.61,7.42,.58,.48,1.18,.98,1.82,1.5l.29,.24c.7,.57,1.29,1.05,1.84,1.49,2.6,2.09,5.36,4.23,8.19,6.37,2.07,1.56,9.44,6.5,11.71,8.02l.73,.49,.8-.54c2.2-1.49,9.54-6.47,11.58-8.04,7.1-5.44,13.43-10.66,19.34-15.96,2.17-1.95,4.32-3.94,6.38-5.92l.88-.85-.79-.94c-.59-.7-1.29-1.7-2.14-3.05-.89-1.42-3.07-3.1-4.51-4.22-.38-.29-.71-.54-.88-.69-.15-.13-.33-.27-.62-.48-.96-.71-2.56-1.9-3.67-4.56-1.49-3.56-1.86-4.88-2.55-7.74-.67-2.76-.87-5.29-.87-5.32l-.09-1.2-.42-.04c-.8-.08-2.02-.21-2.22-.26-.24-.05-2.24-.52-3.02-.77l-.17-.06c-1.51-.52-2.78-1.73-3.32-3.16-.29-.77-.75-2.26-.88-2.7-.02-.05,0-.11,.04-.15,.08-.08,.17-.17,.22-.21l.08-.06c.64-.49,1.39-1.36,1.92-2.2,.31-.49,.44-.96,.55-1.37,.14-.5,.27-.98,.75-1.73,1.23-1.9,3.13-2.55,3.22-2.58l.92-.33-.03-.38s-.1-1.43,.27-2.76c.12-.45,.25-.95,.39-1.48l.07-.27c.15-.58,.3-1.18,.44-1.72l.05,.06c1.03,1.22,1.64,1.71,1.66,1.73l.4,.32,.31-.41s.45-.6,.86-1.25c.47,.5,1.06,1.26,1.42,1.73l.22,.29c.21,.27,.41,.52,.6,.75,1.04,1.27,1.41,2.15,1.45,2.24l.2,.54,.53,.22s1.49,.62,2.84,1.97c1.12,1.11,2,2.42,2.93,3.81,1.1,1.63,2.24,3.32,3.81,4.71,4.05,3.58,10.18,3.07,15.11,2.66,.97-.08,1.88-.16,2.74-.2l3.73-.18,.23-.95c1.19-4.91,1.56-9.86,1.11-14.73ZM50.71,92.62c-.58-.47-1.16-.95-1.72-1.42-2.75-2.28-5.43-4.58-7.96-6.84,.07-.29,.13-.55,.18-.81,.08-.34,.31-.69,.71-1.07,2.93-2.78,5.32-6.11,7.1-9.9,1.7-3.61,2.77-7.46,3.18-11.44,.12-1.15,.18-2.32,.18-3.48,0-.63-.02-1.22-.07-1.8-.03-.41,.04-.72,.21-1.27,.07-.23,.14-.48,.23-.81,.46-1.66,.73-2.21,1.45-2.24,.83-.03,1.77-.09,2.81-.16,3.69-.28,5.71-2.93,6.59-4.13,.81-.66,1.3-1.63,1.34-2.68,.05-1.11-.4-2.14-1.27-2.89-.85-.73-1.61-1.09-2.42-1.48-.28-.13-.56-.26-.86-.42l-.39-.2c-.84-.43-2.4-1.23-2.58-1.98-.21-.85-.54-1.6-.91-2.42-.1-.22-.19-.44-.29-.65-.43-1.02-1.03-2-1.78-2.92-1.44-1.75-3.27-3.15-5.28-4.05-.09-.04-.23-.09-.56-.21-.13-.04-.34-.12-.55-.19-.01-.15-.03-.31-.04-.47l-.03-.29c-.36-3.99-.76-7.12-2.44-8.06-.63-.35-1.35-.35-2.04-.01-2.51,1.25-4.98,7.27-5.61,9.12-.16,.07-.32,.15-.48,.22l.19,.4-.25-.37c-.49,.24-.99,.52-1.52,.84l-.2,.12c-.47,.3-.93,.62-1.44,1.01l-.11,.09c-3.15,2.45-5.87,5.87-8.54,10.75-.55,1.01-.98,2.18-1.44,3.44-.81,2.22-1.65,4.51-3.08,5.45-.93,.61-1.99,1.01-2.9,1.07-1.25,.09-2.55,.16-3.96,.2-.66-1.96-1.18-3.96-1.55-5.96-2.34-12.66,.72-30.16,17.05-37.79,1.76-.82,6.44-2.78,11.91-3.23,4.64-.38,9.81,.34,14.18,1.97,8.35,3.11,14.72,11.12,14.78,11.2l1.04,1.32,1.03-1.33c.06-.08,6.33-8.11,14.71-11.29,4.22-1.6,9.13-2.36,13.46-2.1,6.07,.37,11.21,2.54,12.64,3.2,8.58,3.94,14.58,11.41,16.9,21.04l.04,.17c.4,1.69,.68,3.44,.85,5.23,.4,4.27,.12,8.61-.83,12.92l-1.76,.09c-.85,.04-1.73,.12-2.67,.19h-.16c-4.66,.4-9.94,.84-13.15-2-1.32-1.17-2.31-2.64-3.38-4.22-.96-1.43-1.95-2.9-3.25-4.2-1.2-1.2-2.47-1.94-3.21-2.31-.25-.51-.76-1.39-1.64-2.46-.13-.16-.27-.34-.43-.53l-.14-.18c-1.69-2.14-2.81-3.45-4.11-3.35-.43,.03-.81,.22-1.1,.53-.55-.65-1.14-1.09-1.52-1.29-.42-.22-.89-.25-1.33-.08-.46,.18-.83,.59-1.01,1.11-.3,.91-.63,2.2-.91,3.33-.16,.62-.31,1.21-.44,1.71-.24,.86-.33,1.55-.36,2.04-.98,.48-2.54,1.47-3.7,3.27-.69,1.07-.92,1.86-1.08,2.44-.09,.34-.15,.52-.25,.69-.42,.68-.97,1.26-1.38,1.57-1.37,1.05-1.73,2.17-1.07,3.33,.13,.24,.27,.44,.41,.61-.02,.62,.12,1.33,.42,2.12,.8,2.14,2.69,3.94,5.01,4.74l.13,.04c.9,.29,1.82,.5,2.84,.74l.58,.14c.2,.05,.41,.09,.61,.14,.12,1.06,.38,2.81,.83,4.7,.71,2.94,1.13,4.41,2.68,8.13,1.39,3.33,3.43,4.84,4.58,5.69,.16,.12,.3,.22,.4,.31,.21,.18,.54,.44,1,.79,1.13,.87,3.24,2.5,3.89,3.53,.59,.94,1.12,1.72,1.6,2.38-1.76,1.68-3.6,3.37-5.47,5.05-5.85,5.25-12.13,10.43-19.18,15.83-1.88,1.44-8.81,6.15-10.8,7.5-2-1.34-8.95-6-10.85-7.44-2.78-2.1-5.52-4.23-8.13-6.33-.5-.4-1.04-.84-1.66-1.34l-.53-.43Z" fill="#000000"/></svg>