<svg xmlns="http://www.w3.org/2000/svg" id="Capa_1" width="141.36" height="111.94" viewBox="0 0 141.36 111.94"><defs fill="#000000"><style>.cls-1{fill:#ffffff;}</style></defs><path class="cls-1" d="M136.77,100.87c.58-.46,.92-1.05,1.4-1.86l.27-.45c.11-.19,1.09-2,1.41-5.37v-.07l.05-.05c.72-1.01,1.19-2.05,1.4-3.07h0c.32-1.56-.48-3.2-1.87-3.83-.86-.36-1.33-.41-1.7-.41h-.09l-.07-.06c-.99-.81-4.01-3.28-5.47-6.28-.5-1.08-.81-2.18-.96-3.47-.44-3.92-2.4-7.48-5.38-9.77-.24-.17-.51-.37-.77-.56-.27-.2-.55-.4-.81-.59-3.01-2.24-6.4-3.97-10.09-5.15l-.16-.05-.02-.16c-.62-5.74-2.62-12.41-3.45-15.01-.32-.97-1.09-1.64-2.12-1.85-.98-.2-1.96,.18-2.56,.99l-1.24,1.63-.13-.48c-.21-.78-.41-1.53-.58-2.24-.12-.48-.24-.93-.35-1.37-.25-1.08-1-1.91-2.11-2.34h-.11c-.97-.34-2.05-.17-2.95,.46-7.52,5.6-12.31,20.21-12.51,20.83l-.02,.07-.05,.05c-5.9,5.09-10.21,11.62-14,17.38l-.65,1.01-.38,.46c-2.08,2.58-4.71,4.95-8.05,7.25-6.51,4.46-11.59,13.74-13.95,20.34l-.2,.57-.26-.55c-2.43-5.15-3.41-10.78-2.83-16.27l.24-2.17c.35-2.82,.69-5.48,.13-8.49-.83-4.63-4.44-5.6-7.93-6.55l-.1-.03c-.17-.03-.35-.09-.52-.15-.15-.05-.3-.1-.47-.14-2.76-.72-5.8-.99-8.79-.79-5.13,.41-8.96-.58-11.71-3.01l-.52-.46,4.87,.17c.68,0,1.19-.48,1.19-1.12,.03-.36-.07-.67-.29-.9-.21-.23-.51-.36-.83-.36l-7.86-.22c-1.63,0-4.24-4.74-5.49-8.16-.18-.48-.59-.77-1.06-.77-1.75-.08-3.64-3.75-3.56-6.09,.08-2.81,1.53-4.14,4.43-4.06,.59,0,1.76,.15,2.36,.3,.06,.02,1.08,.37,1.54,1.36,.33,.82,.31,1.45,.24,2.01,0,.28-.03,.62-.09,.93-.08,.45-.37,.84-.77,1.06-.4,.22-.86,.25-1.27,.09-.64-.23-1.3,.08-1.56,.72-.23,.62,.08,1.29,.73,1.55,.49,.18,1.01,.27,1.64,.27,.72,0,1.31-.15,1.81-.47,1.7-.99,1.85-3.17,1.9-3.98,.08-.76,.2-1.97-.48-3.25-.03-.07-.06-.11-.1-.16-.04-.06-.08-.12-.12-.21l-.16-.32,16.28-1.84c2.4-.28,4.59-1.28,6.34-2.89,1.53-1.39,3.01-4.6,3.32-5.38,2.39-3.73,13.12-7.52,18.46-9.01,1.91-.21,4.33-.19,4.95,.17l.05,.04c.14,.14,.35,.21,.62,.21,.37,0,.72-.2,.94-.54,.17-.26,.24-.59,.19-.91-.06-.32-.22-.59-.48-.76-.8-.57-2.36-.83-4.39-.75l-.38,.02,.14-.36c1.18-3.04,4.25-10.58,7.23-14.75,.21-.32,.55-.32,.71-.32,.19,0,.5,.15,.6,.55l2.62,11.27-.05,.09c-1.23,2.09-1.93,3.51-2,3.7-.16,.32-.18,.65-.08,.95,.1,.3,.32,.55,.6,.69,.6,.3,1.31,.07,1.61-.54,.02-.04,.07-.12,.14-.26,2.41-4.61,10.89-19.92,18.87-23.27l.1-.02s.11,0,.19,0c.66-.03,.92-.01,1.05,.12l.08,.1c.7,.86,.78,2.67,.22,4.99l-5.19,20.82c-1.37,5.53-3.88,10.68-7.46,15.29-.21,.27-.3,.58-.27,.88s.19,.58,.44,.78c.16,.15,.42,.24,.71,.24,.36,0,.72-.18,.96-.48,3.33-4.24,5.84-9.13,7.45-14.54l.35-1.19,1,9.16c.06,.59,.59,1.07,1.19,1.07h.14c.63-.06,1.11-.65,1.05-1.31-.5-5.18-1.09-10.45-1.65-15.54v-.1l3.61-14.55c.83-3.47,.52-5.94-.94-7.32-1.5-1.5-3.74-1.11-4.17-1.02-.08,.03-.14,.06-.21,.07-6.52,2.64-12.95,12.03-16.2,17.39l-.32,.53-2.01-8.81c-.26-1.17-1.18-2.06-2.4-2.33-1.19-.27-2.39,.19-3.13,1.2-3.19,4.46-6.55,12.61-8.04,16.72l-.04,.12-.12,.04c-3.75,1.09-16.18,5.03-19.21,9.86-.01,.05-.04,.1-.05,.13l-.03,.09c-.59,1.39-1.82,3.79-2.8,4.7-1.26,1.26-2.98,2.06-4.97,2.3l-19.05,2.17-.24-.03c-.61-.09-1.74-.26-2.42-.26C2.5,44.69,.07,47.07,0,51.08c-.07,3.25,1.99,7.53,4.86,8.4l.12,.04,.04,.11c.98,2.54,3.62,8.49,7,8.92h.08l.06,.07c.08,.08,.16,.18,.24,.27,.07,.08,.13,.16,.2,.23,1.8,2.01,5.45,6.1,15.22,5.4,2.7-.21,5.3,.03,7.94,.73,.18,.03,.35,.09,.52,.15,.15,.05,.3,.1,.47,.14,3.57,.93,5.78,1.65,6.32,4.74,.52,2.75,.2,5.27-.14,7.93l-.22,2.08c-.78,7.1,.9,14.46,4.72,20.74,.26,.38,.62,.6,1.01,.6h.22c.43-.05,.79-.4,.91-.89,1.64-6.01,6.91-17.36,14.08-22.26,3.5-2.48,6.28-5.01,8.52-7.73l1.22-1.64c3.8-5.77,8.12-12.32,13.88-17.12l.24-.24s.03-.08,.04-.11c.02-.06,.04-.13,.09-.21h0s.06-.16,.12-.34c2.86-7.95,6.31-14.3,9.71-17.88l.88-.92-.47,1.19c-1.52,3.87-3.16,10.09-2.36,17.75,.06,.59,.59,1.07,1.19,1.07h.14c.29-.03,.57-.18,.77-.42,.21-.25,.31-.57,.28-.89-.84-7.69,1.04-14.07,2.76-18.06l.29-.68,.18,.71c2.56,10.1,4.11,16.76,4.26,18.26,.06,.65,.65,1.14,1.31,1.07,.31-.03,.59-.18,.79-.42,.21-.25,.31-.57,.28-.89-.15-1.65-1.55-7.54-2.8-12.5l-.03-.12,2.75-3.5,.14,.46c1.6,5.17,2.7,9.79,3.18,13.37l.04,.28h-.29c-.08,0-.15-.02-.22-.05-.03,0-.06-.02-.08-.02-.71-.12-1.35,.3-1.47,.95-.12,.67,.3,1.32,.95,1.44,4.37,.86,8.67,2.79,12.42,5.59,.25,.18,.51,.38,.77,.59,.25,.19,.49,.39,.74,.56,2.52,2,4.13,4.95,4.43,8.1,.15,1.61,.54,2.98,1.2,4.31,1.09,2.25,2.73,4.06,3.91,5.19l.33,.31-.44,.11c-.25,.06-.57,.19-.75,.37-.24,.24-.36,.54-.36,.9,0,.13,.05,3.32,4.85,6.27l.14,.08-.02,.16c-.23,1.71-.69,2.99-1.04,3.62-.44,.96-.74,1.33-.98,1.57l-.07,.07h-.06c-.06,.04-.17,.15-.23,.21l-.1,.06c-1.52,.51-3.22,.73-4.92,.66l-6.92-.36c-.64-.05-1.19,.46-1.25,1.14-.03,.3,.08,.6,.29,.83,.21,.23,.52,.38,.85,.41l6.91,.36h.85c1.01,0,2.01-.11,3.34-.36l.34-.06-.05,.34c-.24,1.72-1.1,2.74-2.64,3.09-.31,.08-.76,.08-1.28,.08l-12.11-.36c-.13,0-.26,0-.39,0-3.3,0-6.4,1.7-8.18,4.5l-.13,.27c-.36,.6-.21,1.33,.35,1.7,.26,.13,.43,.17,.66,.17,.43,0,.78-.19,1.02-.54l.13-.26c1.42-2.25,3.85-3.52,6.5-3.45l12.1,.36c.71,.06,1.32,.02,1.95-.14,2.85-.7,4.43-2.81,4.57-6.11l.03-.1s0-.06,0-.12c0-.04-.02-.08-.02-.13v-.34l.09-.08Zm-1.28-12.13l-.23-.35,.41-.04c.8-.08,1.29-.15,1.46-.2h.22c.2-.01,.38,0,.95,.22,.48,.19,.76,.67,.66,1.09-.07,.46-.26,.98-.6,1.58l-.13,.22-.22-.13c-1.07-.65-1.9-1.43-2.53-2.38Z" fill="#000000"/></svg>