<svg xmlns="http://www.w3.org/2000/svg" id="Capa_1" width="141.36" height="111.94" viewBox="0 0 141.36 111.94"><defs fill="#000000"><style>.cls-1{fill:#ffffff;}</style></defs><path class="cls-1" d="M63.93,106.02c1.44-2.74,2.52-5.29,3.42-7.67-.24,1.63-.43,2.91-.52,3.29-.37,1.69-1.04,4.06-1.34,4.65-.05-.01-.1-.03-.14-.04-.11-.03-.22-.06-.33-.08-.4-.08-.75-.13-1.08-.15Zm22.76,.9l.04-.82s.07,.04,.11,.05l-.14,.76Zm49.82-4.83c-1.84,3.96-5.35,6.63-9.63,7.33-3.18,.52-6.67,.46-10.89-.18-2.33-.36-4.35-.97-6.16-1.88-.41-.21-.91-.23-1.33-.07-.43,.17-.78,.5-.95,.93-.13,.34-.51,1.13-1.26,1.55h-22.67c-.05-.38,0-.83,.14-1.06,.41-.69,.61-.86,1.72-.91,.27,0,.55,.05,.87,.11l.14,.02,.29,.05c1,.16,1.89,.24,2.64,.24,1.03,0,2.26-.12,2.55-1.09,.26-.93-.56-1.25-1.29-1.54-.84-.33-2.41-.95-3.84-1.79-.7-.41-1.29-.82-1.75-1.23-3.7-3.29-7.28-7.71-5.77-15.58,.06-.34-.06-.77-.31-1.01-.45-.45-1.03-.33-1.37-.27-.11,.02-.22,.04-.35,.05-.08,0-.24-.01-.43,.02-.38,.08-.69,.37-.78,.75-.28,1.1-4.33,16.47-4.96,18.45-.49,1.56-.89,2.64-1.17,3.21l-.09,.17c-.17,.34-.47,.96-.78,1.39h-6.36c-.06-.19-.1-.49-.04-.83,.03-.18,.13-.59,.42-.8,.4-.1,.83-.08,1.49,.06,.08,.02,.16,.04,.23,.06,.23,.06,.49,.13,.79,.13,.5,0,.93-.18,1.29-.55,.84-.84,1.77-4.94,1.95-5.75,.12-.57,.4-2.46,.78-5.07,.45-3.1,1.02-6.95,1.54-10.03,.09-.53-.24-1.03-.75-1.17s-1.05,.14-1.24,.64c-.58,1.59-1.09,3.19-1.63,4.88-1.36,4.26-2.91,9.09-5.98,14.71-.47,.86-1.54,2.57-1.77,2.9-.45,.42-1.01,.74-1.51,.85-.06,0-.11,0-.17,0-.11,0-.23-.02-.31-.02-.03,0-.06,0-.08,0h-4.03c-.04-.06-.05-.12-.05-.16-.04-.43,.4-1.09,.57-1.26,.44-.37,1.12-.4,1.88-.29,.05,0,.19,.02,.24,.02,.67,0,1.31-.4,1.58-1,5.21-11.26,6.46-25.45,6.29-26.51-.28-1.79-.63-3.57-.97-5.28-.76-3.89-1.48-7.57-1.55-11.49-.06-3.47,.32-6.86,1.14-10.34,1.35-5.74,3.79-11.13,6.17-16.16,.67-1.42,1.31-2.86,1.94-4.29,1.41-3.21,2.87-6.52,4.75-9.52l.22-.36c.45-.73,.84-1.34,1.19-1.83-.19,1.37-.21,2.98,.39,4.04,.34,.59,.85,.99,1.48,1.15,.87,.22,2.62,.43,3.89,.58,.53,.06,.94,.11,1.09,.14,.1,.02,.19,.05,.29,.08l.18,.05c1.09,.32,2.04,.84,2.78,1.54,.1,.11,.31,.39,.56,.72,1,1.33,1.23,1.59,1.54,1.75,.14,.07,.33,.14,1.24,.46,.87,.3,2.79,.97,3.46,1.29,.04,.25,.03,.78-.16,1.86-.14,.79-1.52,4.81-2.34,5.39-.7,.49-1.55,.47-2.5,.44-.25,0-.51-.02-.76-.02-.54,0-1.25,.03-2.01,.26-3.76,1.16-6.74,4.82-7.08,8.71-.42,4.89,4.01,8.76,6.68,10.63,1.97,1.38,4.13,2.47,6.21,3.53,2.75,1.39,5.35,2.71,7.58,4.63,.09,.08,.18,.15,.27,.22,.11,.09,.22,.17,.32,.27,4.62,4.35,6.93,11.06,8.26,15.74,.78,2.73,1.13,5.59,1.46,8.36,.22,1.81,.45,3.68,.79,5.5,.5,2.62,1.09,3.58,2.88,5.5,2.59,2.78,6.71,4.38,11.29,4.38,5.57,0,10.21-3.52,11.52-8.75,1.51-5.99-.28-11.4-5.04-15.23-2.66-2.14-5.67-4.56-6.28-9.67-.11-.92-.13-1.86-.06-2.79,.01-.14,.11-.23,.34-.23,.11,.03,.2,.21,.18,.38-.06,.86-.04,1.73,.06,2.58,.59,4.9,3.5,7.24,6.08,9.31,1.19,.96,3.83,3.96,4.1,4.41,2.44,4.08,2.71,9.3,.7,13.6Zm-90.25,7.73c-7.99,.06-15.55,.12-17.88-.05l-1.44-.1c-6.03-.4-11.73-.78-16.29-4.63-6.18-5.21-7.86-13.6-4.29-21.38,.83-1.81,2.08-3.59,3.53-5.01,3.25-3.2,7.46-4.82,11.56-4.47,1.38,.12,3.35,1,5.07,2.15-3.65-.25-7.13,.96-9.79,3.49-3.57,3.4-4.86,8.56-3.37,13.47,1.95,6.44,9.54,10.76,15.75,11.22,.36,.03,.7-.13,.91-.42,.21-.29,.26-.66,.13-.99-1.1-2.74-1.29-6.52-.54-10.92,.52-3.1,1.41-6.18,2.62-9.15,2.13-5.21,5.56-10.07,10.47-14.88,2.92-2.85,6.18-4.76,9.62-6.77,2.31-1.35,4.69-2.74,6.98-4.45,.1-.08,.44-.32,.86-.62-.4,2.5-.59,4.98-.55,7.5,.06,4.11,.84,8.05,1.59,11.86,.33,1.7,.68,3.46,.95,5.14,.05,1.08-1.02,14.23-6.01,25.17-1.43-.17-2.41,.08-3.25,.78-.38,.31-1.39,1.59-1.32,2.95,0,.02,.01,.04,.01,.07-1.76,.01-3.55,.02-5.32,.04ZM90.58,20.12c1.39-1.99,2.86-3.98,4.29-5.9,.66-.89,1.31-1.77,1.96-2.66l.36-.49c3.29-4.5,6.4-8.76,12.31-8.99,2.91-.11,6.11,.44,9.81,1.71,1.12,.38,2.66,1.1,3.58,2.36,.54,.74,.8,1.58,.74,2.43-.05,.72,.2,1.43,.7,1.96,1.76,1.84,3.52,2.63,5.63,3.26,.98,.29,5.45,1.36,6.1,1.51,.15,.05,.37,.1,.77,.19,.42,.09,.99,.21,1.53,.35-.07,1.8-1.98,7.71-3.01,8.57-1.35,1.12-4.47,1.72-6.96,1.81-3.5,.12-6.13,.13-7.61,.03-.46-.03-2.39-.03-3.13-.02-.36-2.58-.97-5.31-1.63-7.98-.11-.44-.21-.81-.27-1.11-.13-.56-.69-.89-1.24-.77-.55,.13-.9,.68-.77,1.24,.07,.3,.17,.69,.28,1.14,.88,3.52,3.57,14.22,.3,17.08-3,2.63-7.26-.15-7.74-.48-.33-.22-.75-.24-1.09-.05-.34,.19-.55,.57-.52,.96,.17,2.77,.23,5.72,.25,6.83,0,.17,0,.32,.02,.47h0c0,.19-.07,5.55-.08,6.75-.01,.21-.03,.43-.05,.66-.38,4.58-1.75,9.05-4.05,13.3-.36,.67-.72,1.31-1.03,1.88-2.19-1.67-4.64-2.92-7.03-4.12-2.02-1.02-4.11-2.08-5.96-3.37-2.31-1.62-6.14-4.9-5.81-8.76,.26-3.04,2.68-6.01,5.62-6.91,.39-.12,.81-.17,1.4-.17,.23,0,.47,0,.7,.01,.25,0,.49,.02,.74,.02,.91,0,1.98-.1,3.02-.83,1.79-1.27,3.18-6.67,3.19-6.75,.21-1.22,.38-2.48-.14-3.38-.28-.49-.73-.74-4.52-2.05-.4-.14-.72-.25-.87-.3-.21-.24-.67-.85-.93-1.2-.46-.61-.63-.82-.76-.95-.67-.63-1.44-1.13-2.29-1.53,1.7-2.27,3.56-4.78,4.24-5.74Zm42.42,62.34c-2.49-2-4.84-3.89-5.32-7.95-.09-.72-.11-1.46-.05-2.19,.08-1.19-.65-2.25-1.74-2.53-.19-.05-.39-.07-.58-.07-1.21,0-2.23,.95-2.32,2.15-.08,1.07-.06,2.14,.06,3.2,.71,5.94,4.36,8.88,7.03,11.03,4.1,3.29,5.63,7.95,4.33,13.11-1.08,4.3-4.91,7.19-9.52,7.19-4.01,0-7.58-1.36-9.78-3.72-1.54-1.65-1.94-2.27-2.36-4.48-.33-1.75-.55-3.59-.77-5.36-.34-2.85-.7-5.79-1.53-8.68-1.4-4.9-3.84-11.97-8.83-16.67h0c.36-.65,.79-1.42,1.23-2.23,2.44-4.5,3.88-9.25,4.29-14.11,.02-.2,.03-.39,.04-.57v-.11c.12-.91,.13-2.79,.09-6.91,0-.02,0-.05,0-.07,0-.06,0-.21,0-.43-.02-.87-.06-2.86-.15-5.03,2.64,1.23,5.98,1.6,8.55-.64,2.07-1.81,2.53-5.17,2.21-9.1,1.07,0,2.45,0,2.75,.02,.78,.06,1.78,.08,2.86,.08,1.65,0,3.47-.05,4.98-.11,.95-.03,5.83-.3,8.21-2.28,1.74-1.45,4.09-8.97,3.69-10.92-.16-.78-.69-1.01-.91-1.08-.73-.22-1.61-.41-2.19-.53-.24-.05-.42-.09-.53-.12-.04-.02-.09-.03-.13-.04-.05-.01-5.08-1.21-6.06-1.5-2.17-.65-3.45-1.38-4.72-2.7-.09-.1-.15-.24-.14-.38,.1-1.35-.29-2.66-1.13-3.81-1.24-1.69-3.17-2.61-4.57-3.09C116.04,.49,112.58-.11,109.42,.02c-6.9,.27-10.46,5.13-13.9,9.84l-.35,.49c-.65,.89-1.31,1.77-1.96,2.65-1.44,1.94-2.92,3.94-4.32,5.95-.71,1.02-2.81,3.83-4.6,6.22-.2-.03-.63-.09-1.19-.15-1.15-.14-2.88-.34-3.62-.53-.05-.01-.11-.03-.19-.17-.51-.88-.12-3.38,.31-4.87,.08-.27,.04-.55-.09-.79-.29-.51-.77-.81-1.31-.81h0c-1.22,0-2.32,1.41-4.04,4.2l-.22,.35c-1.96,3.12-3.45,6.5-4.89,9.78-.63,1.42-1.25,2.85-1.91,4.25-2.43,5.13-4.92,10.63-6.32,16.57-.03,.14-.06,.28-.09,.42-.88,.62-2.42,1.71-2.66,1.9-2.2,1.64-4.53,3-6.79,4.32-3.4,1.99-6.92,4.05-10.03,7.08-5.11,5-8.69,10.1-10.93,15.57-1.27,3.11-2.2,6.33-2.75,9.58-.69,4.05-.64,7.54,.12,10.41-5.08-.94-10.83-4.56-12.35-9.56-1.28-4.22-.23-8.47,2.82-11.38,3.03-2.89,7.38-3.72,11.62-2.21,.43,.15,.92,0,1.19-.37,.27-.38,.25-.88-.03-1.25-2.05-2.57-6.48-5.13-9.3-5.37-4.7-.41-9.51,1.44-13.19,5.06-1.62,1.59-3.02,3.59-3.96,5.62-3.97,8.65-2.07,18,4.83,23.83,5.08,4.29,11.39,4.71,17.48,5.12l1.43,.1c1.19,.08,3.64,.11,6.79,.11s7.18-.03,11.25-.06c2.32-.02,4.67-.04,6.94-.05,.08,0,.16,.01,.26,0h4.33c.05,0,.1,0,.15,0,.09,0,.2,.02,.32,.02,.13,0,.28-.01,.44-.04,.75-.16,1.51-.54,2.17-1.07,.18,.39,.43,.7,.75,.91,.17,.12,.45,.24,.83,.18h7.01c.31,.02,.61-.09,.82-.3,.58-.57,1.04-1.46,1.43-2.24l.08-.16c.34-.68,.76-1.83,1.29-3.52,.45-1.42,2.5-9.12,3.84-14.16,.31,6.04,3.67,9.89,6.8,12.67,.57,.51,1.25,.99,2.08,1.47,.11,.06,.21,.12,.32,.18-.2-.03-.41-.05-.63-.05h-.17c-1.67,.07-2.54,.58-3.33,1.92-.59,1.01-.58,2.7,.03,3.69,.19,.3,.52,.49,.88,.49h23.65c.14,0,.29-.03,.42-.09,.97-.43,1.81-1.28,2.33-2.35,1.91,.91,4,1.53,6.39,1.89,4.45,.68,8.14,.73,11.54,.18,4.96-.81,9.03-3.91,11.17-8.5,2.32-4.99,2.02-10.8-.8-15.53-.45-.75-3.28-3.91-4.58-4.96" fill="#000000"/></svg>